<svg width="869" height="869" viewBox="0 0 869 869" fill="none" xmlns="http://www.w3.org/2000/svg">
<rect width="869" height="869" rx="43" fill="black"/>
<g clip-path="url(#clip0_7_19)">
<path d="M268.64 798.646L88.5247 112.089L44.0013 123.77L224.116 810.327L268.64 798.646Z" fill="#FFC107"/>
<path d="M267.75 810.258L447.865 123.701L403.342 112.02L223.227 798.577L267.75 810.258Z" fill="#FFC107"/>
<path d="M636.878 798.644L456.763 112.087L412.24 123.767L592.355 810.324L636.878 798.644Z" fill="#FFC107"/>
<path d="M635.952 810.255L816.066 123.698L771.543 112.018L591.428 798.575L635.952 810.255Z" fill="#FFC107"/>
<path d="M600.564 111.034L506.866 468.188L551.39 479.868L645.087 122.714L600.564 111.034Z" fill="#FFC107"/>
<path d="M231.453 122.672L318.954 456.205L363.477 444.524L275.976 110.991L231.453 122.672Z" fill="#FFC107"/>
<path d="M194.95 434.81L276.82 122.68L232.3 111L171.16 344.1L194.95 434.81Z" fill="#FFC107"/>
<path d="M160.21 385.86L138.78 467.56L183.3 479.24L184 476.57L160.21 385.86Z" fill="#FFC107"/>
<path d="M676.6 421.21L603.9 122.19L643.43 111L697.73 334.31L676.6 421.21Z" fill="#FFC107"/>
<path d="M477.28 430.9H387.65V476.93H477.28V430.9Z" fill="#FFC107"/>
<path d="M644.44 111.13H600.83V157.16H644.44V111.13Z" fill="#FFC107"/>
<path d="M276.22 111.13H232.61V157.16H276.22V111.13Z" fill="#FFC107"/>
<path d="M268.95 765.21H225.34V811.24H268.95V765.21Z" fill="#FFC107"/>
<path d="M637.17 765.21H593.56V811.24H637.17V765.21Z" fill="#FFC107"/>
<path d="M457.9 111.13H402.18V157.16H457.9V111.13Z" fill="#FFC107"/>
</g>
<defs>
<clipPath id="clip0_7_19">
<rect width="772.09" height="700.24" fill="white" transform="translate(44 111)"/>
</clipPath>
</defs>
</svg>
