<svg id="Layer_1" data-name="Layer 1" xmlns="http://www.w3.org/2000/svg" viewBox="0 0 772.09 700.24"><defs><style>.cls-1{fill:#fff;}</style></defs><rect class="cls-1" x="-89.02" y="517.05" width="709.79" height="46.03" transform="translate(567.24 -44.01) rotate(75.3)"/><rect class="cls-1" x="90.24" y="517.05" width="709.79" height="46.03" transform="translate(926.89 56.62) rotate(104.7)"/><rect class="cls-1" x="279.2" y="517.05" width="709.79" height="46.03" transform="translate(842.04 -400.18) rotate(75.3)"/><rect class="cls-1" x="458.46" y="517.05" width="709.79" height="46.03" transform="translate(1388.53 -299.55) rotate(104.7)"/><rect class="cls-1" x="500.89" y="351.29" width="369.24" height="46.03" transform="translate(-4.03 752.54) rotate(-75.3)"/><rect class="cls-1" x="234.65" y="339.48" width="344.82" height="46.03" transform="translate(6.13 658.32) rotate(-104.7)"/><polygon class="cls-1" points="150.95 323.81 232.82 11.68 188.3 0 127.16 233.1 150.95 323.81"/><polygon class="cls-1" points="116.21 274.86 94.78 356.56 139.3 368.24 140 365.57 116.21 274.86"/><polygon class="cls-1" points="632.6 310.21 559.9 11.19 599.43 0 653.73 223.31 632.6 310.21"/><rect class="cls-1" x="343.65" y="319.9" width="89.63" height="46.03"/><rect class="cls-1" x="556.83" y="0.13" width="43.61" height="46.03"/><rect class="cls-1" x="188.61" y="0.13" width="43.61" height="46.03"/><rect class="cls-1" x="181.34" y="654.21" width="43.61" height="46.03"/><rect class="cls-1" x="549.56" y="654.21" width="43.61" height="46.03"/><rect class="cls-1" x="358.18" y="0.13" width="55.72" height="46.03"/></svg>